<svg xmlns="http://www.w3.org/2000/svg" xmlns:xlink="http://www.w3.org/1999/xlink" xml:lang="en" height="223.41000000000003pt" width="274.7pt" viewBox="-18.099999999999994 -201.21000000000004 274.7 223.41000000000003"><polygon points="191.70000000000002,-153.0 204.29999999999998,-144.0 191.70000000000002,-135.0 " style="stroke:black;fill:none;stroke-width:2.0;stroke-dasharray:-;stroke-linecap:round;stroke-linejoin:round;" /><polygon points="191.70000000000002,-81.0 204.29999999999998,-72.0 191.70000000000002,-63.0 " style="stroke:black;fill:none;stroke-width:2.0;stroke-dasharray:-;stroke-linecap:round;stroke-linejoin:round;" /><path d="M 0.0,-0.0 L 3.0998872103417378e-15,-50.625 M 3.5132055050539693e-15,-57.375 L 6.613092715395707e-15,-108.0" style="stroke:black;fill:none;stroke-width:2.0;stroke-dasharray:-;stroke-linecap:round;stroke-linejoin:round;" /><path d="M -13.499999999999996,-50.625 L 13.500000000000004,-50.625" style="stroke:black;fill:none;stroke-width:2.0;stroke-dasharray:-;stroke-linecap:round;stroke-linejoin:round;" /><path d="M -6.7499999999999964,-57.375 L 6.7500000000000036,-57.375" style="stroke:black;fill:none;stroke-width:2.0;stroke-dasharray:-;stroke-linecap:round;stroke-linejoin:round;" /><path d="M 6.613092715395707e-15,-108.0 L 18.000000000000007,-108.0 L 36.00000000000001,-108.0" style="stroke:black;fill:none;stroke-width:2.0;stroke-dasharray:-;stroke-linecap:round;stroke-linejoin:round;" /><path d="M 36.00000000000001,-108.0 L 36.00000000000001,-126.0 L 36.00000000000001,-144.0" style="stroke:black;fill:none;stroke-width:2.0;stroke-dasharray:-;stroke-linecap:round;stroke-linejoin:round;" /><path d="M 36.00000000000001,-144.0 L 72.0,-144.0 L 75.0,-153.0 L 81.0,-135.0 L 87.00000000000001,-153.0 L 93.0,-135.0 L 99.0,-153.0 L 105.00000000000001,-135.0 L 108.0,-144.0 L 144.0,-144.0" style="stroke:black;fill:none;stroke-width:2.0;stroke-dasharray:-;stroke-linecap:round;stroke-linejoin:round;" /><path d="M 144.0,-144.0 L 191.70000000000002,-144.0 M 204.29999999999998,-153.0 L 204.29999999999998,-135.0 M 204.29999999999998,-144.0 L 252.0,-144.0" style="stroke:black;fill:none;stroke-width:2.0;stroke-dasharray:-;stroke-linecap:round;stroke-linejoin:round;" /><path d="M 200.70000000000002,-157.5 L 206.12779964383083,-166.9986493767039" style="stroke:black;fill:none;stroke-width:2.0;stroke-dasharray:-;stroke-linecap:round;stroke-linejoin:round;" /><path d="M 208.70772212328635 -171.5135137157511 L 208.62833989314925 -165.56976923423622 L 203.62725939451235 -168.42752951917157 Z" style="stroke:black;fill:black;stroke-linecap:butt;stroke-linejoin:miter;" /><path d="M 192.6,-157.5 L 198.02779964383078,-166.9986493767039" style="stroke:black;fill:none;stroke-width:2.0;stroke-dasharray:-;stroke-linecap:round;stroke-linejoin:round;" /><path d="M 200.60772212328632 -171.5135137157511 L 200.52833989314922 -165.56976923423622 L 195.52725939451233 -168.42752951917157 Z" style="stroke:black;fill:black;stroke-linecap:butt;stroke-linejoin:miter;" /><path d="M 252.0,-144.0 L 252.0,-126.0 L 252.0,-108.0" style="stroke:black;fill:none;stroke-width:2.0;stroke-dasharray:-;stroke-linecap:round;stroke-linejoin:round;" /><path d="M 36.00000000000001,-108.0 L 36.00000000000001,-90.0 L 36.0,-72.0" style="stroke:black;fill:none;stroke-width:2.0;stroke-dasharray:-;stroke-linecap:round;stroke-linejoin:round;" /><path d="M 36.0,-72.0 L 72.0,-72.0 L 74.99999999999999,-81.0 L 81.0,-63.0 L 87.0,-81.0 L 92.99999999999999,-63.0 L 99.0,-81.0 L 105.0,-63.0 L 108.0,-72.0 L 144.0,-72.0" style="stroke:black;fill:none;stroke-width:2.0;stroke-dasharray:-;stroke-linecap:round;stroke-linejoin:round;" /><path d="M 144.0,-72.0 L 191.70000000000002,-72.0 M 204.29999999999998,-81.0 L 204.29999999999998,-63.0 M 204.29999999999998,-72.0 L 252.0,-72.0" style="stroke:black;fill:none;stroke-width:2.0;stroke-dasharray:-;stroke-linecap:round;stroke-linejoin:round;" /><path d="M 200.70000000000002,-85.5 L 206.12779964383083,-94.9986493767039" style="stroke:black;fill:none;stroke-width:2.0;stroke-dasharray:-;stroke-linecap:round;stroke-linejoin:round;" /><path d="M 208.70772212328635 -99.51351371575109 L 208.62833989314925 -93.56976923423622 L 203.62725939451235 -96.42752951917157 Z" style="stroke:black;fill:black;stroke-linecap:butt;stroke-linejoin:miter;" /><path d="M 192.6,-85.5 L 198.02779964383078,-94.9986493767039" style="stroke:black;fill:none;stroke-width:2.0;stroke-dasharray:-;stroke-linecap:round;stroke-linejoin:round;" /><path d="M 200.60772212328632 -99.51351371575109 L 200.52833989314922 -93.56976923423622 L 195.52725939451233 -96.42752951917157 Z" style="stroke:black;fill:black;stroke-linecap:butt;stroke-linejoin:miter;" /><path d="M 252.0,-72.0 L 252.0,-90.0 L 252.0,-108.0" style="stroke:black;fill:none;stroke-width:2.0;stroke-dasharray:-;stroke-linecap:round;stroke-linejoin:round;" /><path d="M 252.0,-108.0 L 252.0,-90.0 L 252.0,-72.0" style="stroke:black;fill:none;stroke-width:2.0;stroke-dasharray:-;stroke-linecap:round;stroke-linejoin:round;" /><path d="M 252.0,-72.0 L 252.0,-36.0 L 252.0,-0.0" style="stroke:black;fill:none;stroke-width:2.0;stroke-dasharray:-;stroke-linecap:round;stroke-linejoin:round;" /><path d="M 252.0,-0.0 L 126.0,-1.543054966925665e-14 L 0.0,-3.08610993385133e-14" style="stroke:black;fill:none;stroke-width:2.0;stroke-dasharray:-;stroke-linecap:round;stroke-linejoin:round;" /><text x="-2.2043642384652378e-16" y="-10.399999999999997" dominant-baseline="hanging" fill="black" font-size="14.0" font-family="sans" text-anchor="middle"><tspan x="-2.2043642384652378e-16" dy="14.0">5V</tspan></text><text x="90.0" y="-170.6" dominant-baseline="ideographic" fill="black" font-size="14.0" font-family="sans" text-anchor="middle"><tspan x="90.0" dy="14.0">R = ?</tspan></text><text x="198.0" y="-196.60999999999999" dominant-baseline="ideographic" fill="black" font-size="14.0" font-family="sans" text-anchor="middle"><tspan x="198.0" dy="14.0">Eye 1</tspan></text><text x="90.0" y="-73.4" dominant-baseline="hanging" fill="black" font-size="14.0" font-family="sans" text-anchor="middle"><tspan x="90.0" dy="14.0">R = ?</tspan></text><text x="198.0" y="-73.4" dominant-baseline="hanging" fill="black" font-size="14.0" font-family="sans" text-anchor="middle"><tspan x="198.0" dy="14.0">Eye 2</tspan></text></svg>