<svg xmlns="http://www.w3.org/2000/svg" xmlns:xlink="http://www.w3.org/1999/xlink" xml:lang="en" height="44.8pt" width="405.20000000000005pt" viewBox="-4.6 -31.199999999999996 405.20000000000005 44.8"><path d="M 0.0,-0.0 L 18.0,-0.0 L 36.0,-0.0" style="stroke:black;fill:none;stroke-width:2.0;stroke-dasharray:-;stroke-linecap:round;stroke-linejoin:round;" /><path d="M 36.0,-0.0 L 72.0,-0.0 L 74.99999999999999,-9.0 L 81.0,9.0 L 87.0,-9.0 L 92.99999999999999,9.0 L 99.0,-9.0 L 105.0,9.0 L 108.0,-0.0 L 144.0,-0.0" style="stroke:black;fill:none;stroke-width:2.0;stroke-dasharray:-;stroke-linecap:round;stroke-linejoin:round;" /><path d="M 144.0,-0.0 L 180.0,-0.0 L 183.0,-9.0 L 189.0,9.0 L 194.99999999999997,-9.0 L 201.0,9.0 L 207.0,-9.0 L 212.99999999999997,9.0 L 216.0,-0.0 L 252.0,-0.0" style="stroke:black;fill:none;stroke-width:2.0;stroke-dasharray:-;stroke-linecap:round;stroke-linejoin:round;" /><path d="M 252.0,-0.0 L 288.0,-0.0 L 291.0,-9.0 L 297.0,9.0 L 303.0,-9.0 L 309.0,9.0 L 315.0,-9.0 L 321.0,9.0 L 324.0,-0.0 L 360.0,-0.0" style="stroke:black;fill:none;stroke-width:2.0;stroke-dasharray:-;stroke-linecap:round;stroke-linejoin:round;" /><path d="M 360.0,-0.0 L 378.0,-0.0 L 396.0,-0.0" style="stroke:black;fill:none;stroke-width:2.0;stroke-dasharray:-;stroke-linecap:round;stroke-linejoin:round;" /><text x="90.0" y="-26.6" dominant-baseline="ideographic" fill="black" font-size="14.0" font-family="sans" text-anchor="middle"><tspan x="90.0" dy="14.0">R₁</tspan></text><text x="198.0" y="-26.6" dominant-baseline="ideographic" fill="black" font-size="14.0" font-family="sans" text-anchor="middle"><tspan x="198.0" dy="14.0">R₂</tspan></text><text x="306.0" y="-26.6" dominant-baseline="ideographic" fill="black" font-size="14.0" font-family="sans" text-anchor="middle"><tspan x="306.0" dy="14.0">R<tspan baseline-shift="-2" font-size="smaller">n</tspan></tspan></text></svg>