<svg xmlns="http://www.w3.org/2000/svg" xmlns:xlink="http://www.w3.org/1999/xlink" xml:lang="en" height="225.2pt" width="261.95pt" viewBox="-51.268 -112.6 261.95 225.2"><polygon points="116.99999999999997,47.699999999999996 107.99999999999997,60.3 98.99999999999997,47.699999999999996 " style="stroke:black;fill:none;stroke-width:2.0;stroke-dasharray:-;stroke-linecap:round;stroke-linejoin:round;" /><path d="M 0.0,-0.0 L 3.0998872103417378e-15,-50.625 M 3.5132055050539693e-15,-57.375 L 6.613092715395707e-15,-108.0" style="stroke:black;fill:none;stroke-width:2.0;stroke-dasharray:-;stroke-linecap:round;stroke-linejoin:round;" /><path d="M -13.499999999999996,-50.625 L 13.500000000000004,-50.625" style="stroke:black;fill:none;stroke-width:2.0;stroke-dasharray:-;stroke-linecap:round;stroke-linejoin:round;" /><path d="M -6.7499999999999964,-57.375 L 6.7500000000000036,-57.375" style="stroke:black;fill:none;stroke-width:2.0;stroke-dasharray:-;stroke-linecap:round;stroke-linejoin:round;" /><path d="M 6.613092715395707e-15,-108.0 L 54.00000000000001,-108.0 L 108.0,-108.0" style="stroke:black;fill:none;stroke-width:2.0;stroke-dasharray:-;stroke-linecap:round;stroke-linejoin:round;" /><path d="M 108.0,-108.0 L 108.0,-72.0 L 117.0,-69.0 L 99.0,-63.0 L 116.99999999999999,-57.00000000000001 L 98.99999999999999,-51.0 L 116.99999999999999,-45.0 L 98.99999999999999,-39.00000000000001 L 107.99999999999999,-36.0 L 107.99999999999999,-0.0" style="stroke:black;fill:none;stroke-width:2.0;stroke-dasharray:-;stroke-linecap:round;stroke-linejoin:round;" /><path d="M 107.99999999999999,-0.0 L 107.99999999999997,47.699999999999996 M 116.99999999999997,60.3 L 98.99999999999997,60.3 M 107.99999999999997,60.3 L 107.99999999999997,108.0" style="stroke:black;fill:none;stroke-width:2.0;stroke-dasharray:-;stroke-linecap:round;stroke-linejoin:round;" /><path d="M 121.49999999999997,56.699999999999996 L 130.99864937670387,62.127799643830805" style="stroke:black;fill:none;stroke-width:2.0;stroke-dasharray:-;stroke-linecap:round;stroke-linejoin:round;" /><path d="M 135.51351371575106 64.70772212328633 L 129.5697692342362 64.62833989314925 L 132.42752951917154 59.62725939451236 Z" style="stroke:black;fill:black;stroke-linecap:butt;stroke-linejoin:miter;" /><path d="M 121.49999999999997,48.599999999999994 L 130.99864937670387,54.027799643830804" style="stroke:black;fill:none;stroke-width:2.0;stroke-dasharray:-;stroke-linecap:round;stroke-linejoin:round;" /><path d="M 135.51351371575106 56.60772212328634 L 129.5697692342362 56.528339893149244 L 132.42752951917154 51.52725939451236 Z" style="stroke:black;fill:black;stroke-linecap:butt;stroke-linejoin:miter;" /><path d="M 107.99999999999997,108.0 L 53.99999999999997,108.0 L -3.197442310920451e-14,107.99999999999999" style="stroke:black;fill:none;stroke-width:2.0;stroke-dasharray:-;stroke-linecap:round;stroke-linejoin:round;" /><path d="M -3.197442310920451e-14,107.99999999999999 L -2.866787675150665e-14,53.999999999999986 L -2.5361330393808804e-14,-1.5987211554602254e-14" style="stroke:black;fill:none;stroke-width:2.0;stroke-dasharray:-;stroke-linecap:round;stroke-linejoin:round;" /><text x="-17.099999999999994" y="-68.0" dominant-baseline="central" fill="black" font-size="14.0" font-family="sans" text-anchor="end"><tspan x="-17.099999999999994" dy="14.0">3.3V</tspan></text><text x="95.39999999999999" y="-68.0" dominant-baseline="central" fill="black" font-size="14.0" font-family="sans" text-anchor="end"><tspan x="95.39999999999999" dy="14.0">?</tspan></text><text x="146.60999999999999" y="40.00000000000001" dominant-baseline="central" fill="black" font-size="14.0" font-family="sans" text-anchor="start"><tspan x="146.60999999999999" dy="14.0">Safe LED</tspan></text></svg>