<?xml version="1.0" encoding="utf-8" standalone="no"?>
<!DOCTYPE svg PUBLIC "-//W3C//DTD SVG 1.1//EN"
  "http://www.w3.org/Graphics/SVG/1.1/DTD/svg11.dtd">
<svg xmlns:xlink="http://www.w3.org/1999/xlink" width="283.606812pt" height="279.36pt" viewBox="0 0 283.606812 279.36" xmlns="http://www.w3.org/2000/svg" version="1.1">
 <metadata>
  <rdf:RDF xmlns:dc="http://purl.org/dc/elements/1.1/" xmlns:cc="http://creativecommons.org/ns#" xmlns:rdf="http://www.w3.org/1999/02/22-rdf-syntax-ns#">
   <cc:Work>
    <dc:type rdf:resource="http://purl.org/dc/dcmitype/StillImage"/>
    <dc:date>2026-04-11T03:11:51.443400</dc:date>
    <dc:format>image/svg+xml</dc:format>
    <dc:creator>
     <cc:Agent>
      <dc:title>Matplotlib v3.10.8, https://matplotlib.org/</dc:title>
     </cc:Agent>
    </dc:creator>
   </cc:Work>
  </rdf:RDF>
 </metadata>
 <defs>
  <style type="text/css">*{stroke-linejoin: round; stroke-linecap: butt}</style>
 </defs>
 <g id="figure_1">
  <g id="patch_1">
   <path d="M 0 279.36 
L 283.606812 279.36 
L 283.606812 0 
L 0 0 
z
" style="fill: #ffffff"/>
  </g>
  <g id="axes_1">
   <g id="patch_2">
    <path d="M 154.522812 166.68 
C 159.296468 166.68 163.87525 164.783406 167.250735 161.407922 
C 170.626219 158.032438 172.522812 153.453656 172.522812 148.68 
C 172.522812 143.906344 170.626219 139.327562 167.250735 135.952078 
C 163.87525 132.576594 159.296468 130.68 154.522812 130.68 
C 149.749157 130.68 145.170375 132.576594 141.79489 135.952078 
C 138.419406 139.327562 136.522812 143.906344 136.522812 148.68 
C 136.522812 153.453656 138.419406 158.032438 141.79489 161.407922 
C 145.170375 164.783406 149.749157 166.68 154.522812 166.68 
L 154.522812 166.68 
z
" clip-path="url(#p32bc72bccf)" style="fill: none; stroke: #000000; stroke-width: 2; stroke-linejoin: miter"/>
   </g>
   <g id="line2d_1">
    <path d="M 82.522812 22.68 
L 154.522812 22.68 
L 226.522812 22.68 
" clip-path="url(#p32bc72bccf)" style="fill: none; stroke: #000000; stroke-width: 2; stroke-linecap: round"/>
   </g>
   <g id="line2d_2">
    <path d="M 82.522812 22.68 
L 82.522812 13.68 
L 82.522812 4.68 
" clip-path="url(#p32bc72bccf)" style="fill: none; stroke: #000000; stroke-width: 2; stroke-linecap: round"/>
   </g>
   <g id="line2d_3">
    <path d="M 82.522812 22.68 
L 82.522812 31.68 
L 82.522812 40.68 
" clip-path="url(#p32bc72bccf)" style="fill: none; stroke: #000000; stroke-width: 2; stroke-linecap: round"/>
   </g>
   <g id="line2d_4">
    <path d="M 82.522812 40.68 
L 82.522812 76.68 
M 86.122812 85.32 
L 98.722812 105.48 
M 82.522812 112.68 
L 82.522812 148.68 
" clip-path="url(#p32bc72bccf)" style="fill: none; stroke: #000000; stroke-width: 2; stroke-linecap: round"/>
   </g>
   <g id="line2d_5">
    <path d="M 82.522812 148.68 
L 82.522812 184.68 
M 86.122812 193.32 
L 98.722812 213.48 
M 82.522812 220.68 
L 82.522812 256.68 
" clip-path="url(#p32bc72bccf)" style="fill: none; stroke: #000000; stroke-width: 2; stroke-linecap: round"/>
   </g>
   <g id="line2d_6">
    <path d="M 82.522812 256.68 
L 118.522812 256.68 
L 154.522812 256.68 
" clip-path="url(#p32bc72bccf)" style="fill: none; stroke: #000000; stroke-width: 2; stroke-linecap: round"/>
   </g>
   <g id="line2d_7">
    <path d="M 226.522812 22.68 
L 226.522812 31.68 
L 226.522812 40.68 
" clip-path="url(#p32bc72bccf)" style="fill: none; stroke: #000000; stroke-width: 2; stroke-linecap: round"/>
   </g>
   <g id="line2d_8">
    <path d="M 226.522812 40.68 
L 226.522812 76.68 
M 230.122812 85.32 
L 242.722812 105.48 
M 226.522812 112.68 
L 226.522812 148.68 
" clip-path="url(#p32bc72bccf)" style="fill: none; stroke: #000000; stroke-width: 2; stroke-linecap: round"/>
   </g>
   <g id="line2d_9">
    <path d="M 226.522812 148.68 
L 226.522812 184.68 
M 230.122812 193.32 
L 242.722812 213.48 
M 226.522812 220.68 
L 226.522812 256.68 
" clip-path="url(#p32bc72bccf)" style="fill: none; stroke: #000000; stroke-width: 2; stroke-linecap: round"/>
   </g>
   <g id="line2d_10">
    <path d="M 226.522812 256.68 
L 190.522812 256.68 
L 154.522812 256.68 
" clip-path="url(#p32bc72bccf)" style="fill: none; stroke: #000000; stroke-width: 2; stroke-linecap: round"/>
   </g>
   <g id="line2d_11">
    <path d="M 226.522812 256.68 
L 226.522812 265.68 
L 226.522812 274.68 
" clip-path="url(#p32bc72bccf)" style="fill: none; stroke: #000000; stroke-width: 2; stroke-linecap: round"/>
   </g>
   <g id="line2d_12">
    <path d="M 82.522812 148.68 
L 128.602812 148.68 
L 128.602812 148.68 
M 180.442812 148.68 
L 180.442812 148.68 
L 226.522812 148.68 
" clip-path="url(#p32bc72bccf)" style="fill: none; stroke: #000000; stroke-width: 2; stroke-linecap: round"/>
   </g>
   <g id="line2d_13">
    <path d="M 136.522812 156.6 
L 128.602812 156.6 
L 128.602812 140.76 
L 136.522812 140.76 
" clip-path="url(#p32bc72bccf)" style="fill: none; stroke: #000000; stroke-width: 2; stroke-linecap: round"/>
   </g>
   <g id="line2d_14">
    <path d="M 172.522812 156.6 
L 180.442812 156.6 
L 180.442812 140.76 
L 172.522812 140.76 
" clip-path="url(#p32bc72bccf)" style="fill: none; stroke: #000000; stroke-width: 2; stroke-linecap: round"/>
   </g>
   <g id="text_1">
    <!-- Battery (+) -->
    <g transform="translate(-0 17.543125) scale(0.14 -0.14)">
     <defs>
      <path id="DejaVuSans-42" d="M 1259 2228 
L 1259 519 
L 2272 519 
Q 2781 519 3026 730 
Q 3272 941 3272 1375 
Q 3272 1813 3026 2020 
Q 2781 2228 2272 2228 
L 1259 2228 
z
M 1259 4147 
L 1259 2741 
L 2194 2741 
Q 2656 2741 2882 2914 
Q 3109 3088 3109 3444 
Q 3109 3797 2882 3972 
Q 2656 4147 2194 4147 
L 1259 4147 
z
M 628 4666 
L 2241 4666 
Q 2963 4666 3353 4366 
Q 3744 4066 3744 3513 
Q 3744 3084 3544 2831 
Q 3344 2578 2956 2516 
Q 3422 2416 3680 2098 
Q 3938 1781 3938 1306 
Q 3938 681 3513 340 
Q 3088 0 2303 0 
L 628 0 
L 628 4666 
z
" transform="scale(0.015625)"/>
      <path id="DejaVuSans-61" d="M 2194 1759 
Q 1497 1759 1228 1600 
Q 959 1441 959 1056 
Q 959 750 1161 570 
Q 1363 391 1709 391 
Q 2188 391 2477 730 
Q 2766 1069 2766 1631 
L 2766 1759 
L 2194 1759 
z
M 3341 1997 
L 3341 0 
L 2766 0 
L 2766 531 
Q 2569 213 2275 61 
Q 1981 -91 1556 -91 
Q 1019 -91 701 211 
Q 384 513 384 1019 
Q 384 1609 779 1909 
Q 1175 2209 1959 2209 
L 2766 2209 
L 2766 2266 
Q 2766 2663 2505 2880 
Q 2244 3097 1772 3097 
Q 1472 3097 1187 3025 
Q 903 2953 641 2809 
L 641 3341 
Q 956 3463 1253 3523 
Q 1550 3584 1831 3584 
Q 2591 3584 2966 3190 
Q 3341 2797 3341 1997 
z
" transform="scale(0.015625)"/>
      <path id="DejaVuSans-74" d="M 1172 4494 
L 1172 3500 
L 2356 3500 
L 2356 3053 
L 1172 3053 
L 1172 1153 
Q 1172 725 1289 603 
Q 1406 481 1766 481 
L 2356 481 
L 2356 0 
L 1766 0 
Q 1100 0 847 248 
Q 594 497 594 1153 
L 594 3053 
L 172 3053 
L 172 3500 
L 594 3500 
L 594 4494 
L 1172 4494 
z
" transform="scale(0.015625)"/>
      <path id="DejaVuSans-65" d="M 3597 1894 
L 3597 1613 
L 953 1613 
Q 991 1019 1311 708 
Q 1631 397 2203 397 
Q 2534 397 2845 478 
Q 3156 559 3463 722 
L 3463 178 
Q 3153 47 2828 -22 
Q 2503 -91 2169 -91 
Q 1331 -91 842 396 
Q 353 884 353 1716 
Q 353 2575 817 3079 
Q 1281 3584 2069 3584 
Q 2775 3584 3186 3129 
Q 3597 2675 3597 1894 
z
M 3022 2063 
Q 3016 2534 2758 2815 
Q 2500 3097 2075 3097 
Q 1594 3097 1305 2825 
Q 1016 2553 972 2059 
L 3022 2063 
z
" transform="scale(0.015625)"/>
      <path id="DejaVuSans-72" d="M 2631 2963 
Q 2534 3019 2420 3045 
Q 2306 3072 2169 3072 
Q 1681 3072 1420 2755 
Q 1159 2438 1159 1844 
L 1159 0 
L 581 0 
L 581 3500 
L 1159 3500 
L 1159 2956 
Q 1341 3275 1631 3429 
Q 1922 3584 2338 3584 
Q 2397 3584 2469 3576 
Q 2541 3569 2628 3553 
L 2631 2963 
z
" transform="scale(0.015625)"/>
      <path id="DejaVuSans-79" d="M 2059 -325 
Q 1816 -950 1584 -1140 
Q 1353 -1331 966 -1331 
L 506 -1331 
L 506 -850 
L 844 -850 
Q 1081 -850 1212 -737 
Q 1344 -625 1503 -206 
L 1606 56 
L 191 3500 
L 800 3500 
L 1894 763 
L 2988 3500 
L 3597 3500 
L 2059 -325 
z
" transform="scale(0.015625)"/>
      <path id="DejaVuSans-20" transform="scale(0.015625)"/>
      <path id="DejaVuSans-28" d="M 1984 4856 
Q 1566 4138 1362 3434 
Q 1159 2731 1159 2009 
Q 1159 1288 1364 580 
Q 1569 -128 1984 -844 
L 1484 -844 
Q 1016 -109 783 600 
Q 550 1309 550 2009 
Q 550 2706 781 3412 
Q 1013 4119 1484 4856 
L 1984 4856 
z
" transform="scale(0.015625)"/>
      <path id="DejaVuSans-2b" d="M 2944 4013 
L 2944 2272 
L 4684 2272 
L 4684 1741 
L 2944 1741 
L 2944 0 
L 2419 0 
L 2419 1741 
L 678 1741 
L 678 2272 
L 2419 2272 
L 2419 4013 
L 2944 4013 
z
" transform="scale(0.015625)"/>
      <path id="DejaVuSans-29" d="M 513 4856 
L 1013 4856 
Q 1481 4119 1714 3412 
Q 1947 2706 1947 2009 
Q 1947 1309 1714 600 
Q 1481 -109 1013 -844 
L 513 -844 
Q 928 -128 1133 580 
Q 1338 1288 1338 2009 
Q 1338 2731 1133 3434 
Q 928 4138 513 4856 
z
" transform="scale(0.015625)"/>
     </defs>
     <use xlink:href="#DejaVuSans-42"/>
     <use xlink:href="#DejaVuSans-61" transform="translate(68.603516 0)"/>
     <use xlink:href="#DejaVuSans-74" transform="translate(129.882812 0)"/>
     <use xlink:href="#DejaVuSans-74" transform="translate(169.091797 0)"/>
     <use xlink:href="#DejaVuSans-65" transform="translate(208.300781 0)"/>
     <use xlink:href="#DejaVuSans-72" transform="translate(269.824219 0)"/>
     <use xlink:href="#DejaVuSans-79" transform="translate(310.9375 0)"/>
     <use xlink:href="#DejaVuSans-20" transform="translate(370.117188 0)"/>
     <use xlink:href="#DejaVuSans-28" transform="translate(401.904297 0)"/>
     <use xlink:href="#DejaVuSans-2b" transform="translate(440.917969 0)"/>
     <use xlink:href="#DejaVuSans-29" transform="translate(524.707031 0)"/>
    </g>
   </g>
   <g id="patch_3">
    <path d="M 82.522812 85.32 
C 83.66849 85.32 84.767398 84.864818 85.577514 84.054701 
C 86.38763 83.244585 86.842812 82.145677 86.842812 81 
C 86.842812 79.854323 86.38763 78.755415 85.577514 77.945299 
C 84.767398 77.135182 83.66849 76.68 82.522812 76.68 
C 81.377135 76.68 80.278227 77.135182 79.468111 77.945299 
C 78.657995 78.755415 78.202812 79.854323 78.202812 81 
C 78.202812 82.145677 78.657995 83.244585 79.468111 84.054701 
C 80.278227 84.864818 81.377135 85.32 82.522812 85.32 
z
" clip-path="url(#p32bc72bccf)" style="fill: #ffffff; stroke: #000000; stroke-width: 2; stroke-linejoin: miter"/>
   </g>
   <g id="patch_4">
    <path d="M 82.522812 112.68 
C 83.66849 112.68 84.767398 112.224818 85.577514 111.414701 
C 86.38763 110.604585 86.842812 109.505677 86.842812 108.36 
C 86.842812 107.214323 86.38763 106.115415 85.577514 105.305299 
C 84.767398 104.495182 83.66849 104.04 82.522812 104.04 
C 81.377135 104.04 80.278227 104.495182 79.468111 105.305299 
C 78.657995 106.115415 78.202812 107.214323 78.202812 108.36 
C 78.202812 109.505677 78.657995 110.604585 79.468111 111.414701 
C 80.278227 112.224818 81.377135 112.68 82.522812 112.68 
z
" clip-path="url(#p32bc72bccf)" style="fill: #ffffff; stroke: #000000; stroke-width: 2; stroke-linejoin: miter"/>
   </g>
   <g id="text_2">
    <!-- S1 -->
    <g transform="translate(56.8075 98.543125) scale(0.14 -0.14)">
     <defs>
      <path id="DejaVuSans-53" d="M 3425 4513 
L 3425 3897 
Q 3066 4069 2747 4153 
Q 2428 4238 2131 4238 
Q 1616 4238 1336 4038 
Q 1056 3838 1056 3469 
Q 1056 3159 1242 3001 
Q 1428 2844 1947 2747 
L 2328 2669 
Q 3034 2534 3370 2195 
Q 3706 1856 3706 1288 
Q 3706 609 3251 259 
Q 2797 -91 1919 -91 
Q 1588 -91 1214 -16 
Q 841 59 441 206 
L 441 856 
Q 825 641 1194 531 
Q 1563 422 1919 422 
Q 2459 422 2753 634 
Q 3047 847 3047 1241 
Q 3047 1584 2836 1778 
Q 2625 1972 2144 2069 
L 1759 2144 
Q 1053 2284 737 2584 
Q 422 2884 422 3419 
Q 422 4038 858 4394 
Q 1294 4750 2059 4750 
Q 2388 4750 2728 4690 
Q 3069 4631 3425 4513 
z
" transform="scale(0.015625)"/>
      <path id="DejaVuSans-31" d="M 794 531 
L 1825 531 
L 1825 4091 
L 703 3866 
L 703 4441 
L 1819 4666 
L 2450 4666 
L 2450 531 
L 3481 531 
L 3481 0 
L 794 0 
L 794 531 
z
" transform="scale(0.015625)"/>
     </defs>
     <use xlink:href="#DejaVuSans-53"/>
     <use xlink:href="#DejaVuSans-31" transform="translate(63.476562 0)"/>
    </g>
   </g>
   <g id="patch_5">
    <path d="M 82.522812 193.32 
C 83.66849 193.32 84.767398 192.864818 85.577514 192.054701 
C 86.38763 191.244585 86.842812 190.145677 86.842812 189 
C 86.842812 187.854323 86.38763 186.755415 85.577514 185.945299 
C 84.767398 185.135182 83.66849 184.68 82.522812 184.68 
C 81.377135 184.68 80.278227 185.135182 79.468111 185.945299 
C 78.657995 186.755415 78.202812 187.854323 78.202812 189 
C 78.202812 190.145677 78.657995 191.244585 79.468111 192.054701 
C 80.278227 192.864818 81.377135 193.32 82.522812 193.32 
z
" clip-path="url(#p32bc72bccf)" style="fill: #ffffff; stroke: #000000; stroke-width: 2; stroke-linejoin: miter"/>
   </g>
   <g id="patch_6">
    <path d="M 82.522812 220.68 
C 83.66849 220.68 84.767398 220.224818 85.577514 219.414701 
C 86.38763 218.604585 86.842812 217.505677 86.842812 216.36 
C 86.842812 215.214323 86.38763 214.115415 85.577514 213.305299 
C 84.767398 212.495182 83.66849 212.04 82.522812 212.04 
C 81.377135 212.04 80.278227 212.495182 79.468111 213.305299 
C 78.657995 214.115415 78.202812 215.214323 78.202812 216.36 
C 78.202812 217.505677 78.657995 218.604585 79.468111 219.414701 
C 80.278227 220.224818 81.377135 220.68 82.522812 220.68 
z
" clip-path="url(#p32bc72bccf)" style="fill: #ffffff; stroke: #000000; stroke-width: 2; stroke-linejoin: miter"/>
   </g>
   <g id="text_3">
    <!-- S3 -->
    <g transform="translate(56.8075 206.543125) scale(0.14 -0.14)">
     <defs>
      <path id="DejaVuSans-33" d="M 2597 2516 
Q 3050 2419 3304 2112 
Q 3559 1806 3559 1356 
Q 3559 666 3084 287 
Q 2609 -91 1734 -91 
Q 1441 -91 1130 -33 
Q 819 25 488 141 
L 488 750 
Q 750 597 1062 519 
Q 1375 441 1716 441 
Q 2309 441 2620 675 
Q 2931 909 2931 1356 
Q 2931 1769 2642 2001 
Q 2353 2234 1838 2234 
L 1294 2234 
L 1294 2753 
L 1863 2753 
Q 2328 2753 2575 2939 
Q 2822 3125 2822 3475 
Q 2822 3834 2567 4026 
Q 2313 4219 1838 4219 
Q 1578 4219 1281 4162 
Q 984 4106 628 3988 
L 628 4550 
Q 988 4650 1302 4700 
Q 1616 4750 1894 4750 
Q 2613 4750 3031 4423 
Q 3450 4097 3450 3541 
Q 3450 3153 3228 2886 
Q 3006 2619 2597 2516 
z
" transform="scale(0.015625)"/>
     </defs>
     <use xlink:href="#DejaVuSans-53"/>
     <use xlink:href="#DejaVuSans-33" transform="translate(63.476562 0)"/>
    </g>
   </g>
   <g id="patch_7">
    <path d="M 226.522812 85.32 
C 227.66849 85.32 228.767398 84.864818 229.577514 84.054701 
C 230.38763 83.244585 230.842812 82.145677 230.842812 81 
C 230.842812 79.854323 230.38763 78.755415 229.577514 77.945299 
C 228.767398 77.135182 227.66849 76.68 226.522812 76.68 
C 225.377135 76.68 224.278227 77.135182 223.468111 77.945299 
C 222.657995 78.755415 222.202812 79.854323 222.202812 81 
C 222.202812 82.145677 222.657995 83.244585 223.468111 84.054701 
C 224.278227 84.864818 225.377135 85.32 226.522812 85.32 
z
" clip-path="url(#p32bc72bccf)" style="fill: #ffffff; stroke: #000000; stroke-width: 2; stroke-linejoin: miter"/>
   </g>
   <g id="patch_8">
    <path d="M 226.522812 112.68 
C 227.66849 112.68 228.767398 112.224818 229.577514 111.414701 
C 230.38763 110.604585 230.842812 109.505677 230.842812 108.36 
C 230.842812 107.214323 230.38763 106.115415 229.577514 105.305299 
C 228.767398 104.495182 227.66849 104.04 226.522812 104.04 
C 225.377135 104.04 224.278227 104.495182 223.468111 105.305299 
C 222.657995 106.115415 222.202812 107.214323 222.202812 108.36 
C 222.202812 109.505677 222.657995 110.604585 223.468111 111.414701 
C 224.278227 112.224818 225.377135 112.68 226.522812 112.68 
z
" clip-path="url(#p32bc72bccf)" style="fill: #ffffff; stroke: #000000; stroke-width: 2; stroke-linejoin: miter"/>
   </g>
   <g id="text_4">
    <!-- S2 -->
    <g transform="translate(200.8075 98.543125) scale(0.14 -0.14)">
     <defs>
      <path id="DejaVuSans-32" d="M 1228 531 
L 3431 531 
L 3431 0 
L 469 0 
L 469 531 
Q 828 903 1448 1529 
Q 2069 2156 2228 2338 
Q 2531 2678 2651 2914 
Q 2772 3150 2772 3378 
Q 2772 3750 2511 3984 
Q 2250 4219 1831 4219 
Q 1534 4219 1204 4116 
Q 875 4013 500 3803 
L 500 4441 
Q 881 4594 1212 4672 
Q 1544 4750 1819 4750 
Q 2544 4750 2975 4387 
Q 3406 4025 3406 3419 
Q 3406 3131 3298 2873 
Q 3191 2616 2906 2266 
Q 2828 2175 2409 1742 
Q 1991 1309 1228 531 
z
" transform="scale(0.015625)"/>
     </defs>
     <use xlink:href="#DejaVuSans-53"/>
     <use xlink:href="#DejaVuSans-32" transform="translate(63.476562 0)"/>
    </g>
   </g>
   <g id="patch_9">
    <path d="M 226.522812 193.32 
C 227.66849 193.32 228.767398 192.864818 229.577514 192.054701 
C 230.38763 191.244585 230.842812 190.145677 230.842812 189 
C 230.842812 187.854323 230.38763 186.755415 229.577514 185.945299 
C 228.767398 185.135182 227.66849 184.68 226.522812 184.68 
C 225.377135 184.68 224.278227 185.135182 223.468111 185.945299 
C 222.657995 186.755415 222.202812 187.854323 222.202812 189 
C 222.202812 190.145677 222.657995 191.244585 223.468111 192.054701 
C 224.278227 192.864818 225.377135 193.32 226.522812 193.32 
z
" clip-path="url(#p32bc72bccf)" style="fill: #ffffff; stroke: #000000; stroke-width: 2; stroke-linejoin: miter"/>
   </g>
   <g id="patch_10">
    <path d="M 226.522812 220.68 
C 227.66849 220.68 228.767398 220.224818 229.577514 219.414701 
C 230.38763 218.604585 230.842812 217.505677 230.842812 216.36 
C 230.842812 215.214323 230.38763 214.115415 229.577514 213.305299 
C 228.767398 212.495182 227.66849 212.04 226.522812 212.04 
C 225.377135 212.04 224.278227 212.495182 223.468111 213.305299 
C 222.657995 214.115415 222.202812 215.214323 222.202812 216.36 
C 222.202812 217.505677 222.657995 218.604585 223.468111 219.414701 
C 224.278227 220.224818 225.377135 220.68 226.522812 220.68 
z
" clip-path="url(#p32bc72bccf)" style="fill: #ffffff; stroke: #000000; stroke-width: 2; stroke-linejoin: miter"/>
   </g>
   <g id="text_5">
    <!-- S4 -->
    <g transform="translate(200.8075 206.543125) scale(0.14 -0.14)">
     <defs>
      <path id="DejaVuSans-34" d="M 2419 4116 
L 825 1625 
L 2419 1625 
L 2419 4116 
z
M 2253 4666 
L 3047 4666 
L 3047 1625 
L 3713 1625 
L 3713 1100 
L 3047 1100 
L 3047 0 
L 2419 0 
L 2419 1100 
L 313 1100 
L 313 1709 
L 2253 4666 
z
" transform="scale(0.015625)"/>
     </defs>
     <use xlink:href="#DejaVuSans-53"/>
     <use xlink:href="#DejaVuSans-34" transform="translate(63.476562 0)"/>
    </g>
   </g>
   <g id="text_6">
    <!-- GND (-) -->
    <g transform="translate(230.122812 269.543125) scale(0.14 -0.14)">
     <defs>
      <path id="DejaVuSans-47" d="M 3809 666 
L 3809 1919 
L 2778 1919 
L 2778 2438 
L 4434 2438 
L 4434 434 
Q 4069 175 3628 42 
Q 3188 -91 2688 -91 
Q 1594 -91 976 548 
Q 359 1188 359 2328 
Q 359 3472 976 4111 
Q 1594 4750 2688 4750 
Q 3144 4750 3555 4637 
Q 3966 4525 4313 4306 
L 4313 3634 
Q 3963 3931 3569 4081 
Q 3175 4231 2741 4231 
Q 1884 4231 1454 3753 
Q 1025 3275 1025 2328 
Q 1025 1384 1454 906 
Q 1884 428 2741 428 
Q 3075 428 3337 486 
Q 3600 544 3809 666 
z
" transform="scale(0.015625)"/>
      <path id="DejaVuSans-4e" d="M 628 4666 
L 1478 4666 
L 3547 763 
L 3547 4666 
L 4159 4666 
L 4159 0 
L 3309 0 
L 1241 3903 
L 1241 0 
L 628 0 
L 628 4666 
z
" transform="scale(0.015625)"/>
      <path id="DejaVuSans-44" d="M 1259 4147 
L 1259 519 
L 2022 519 
Q 2988 519 3436 956 
Q 3884 1394 3884 2338 
Q 3884 3275 3436 3711 
Q 2988 4147 2022 4147 
L 1259 4147 
z
M 628 4666 
L 1925 4666 
Q 3281 4666 3915 4102 
Q 4550 3538 4550 2338 
Q 4550 1131 3912 565 
Q 3275 0 1925 0 
L 628 0 
L 628 4666 
z
" transform="scale(0.015625)"/>
      <path id="DejaVuSans-2d" d="M 313 2009 
L 1997 2009 
L 1997 1497 
L 313 1497 
L 313 2009 
z
" transform="scale(0.015625)"/>
     </defs>
     <use xlink:href="#DejaVuSans-47"/>
     <use xlink:href="#DejaVuSans-4e" transform="translate(77.490234 0)"/>
     <use xlink:href="#DejaVuSans-44" transform="translate(152.294922 0)"/>
     <use xlink:href="#DejaVuSans-20" transform="translate(229.296875 0)"/>
     <use xlink:href="#DejaVuSans-28" transform="translate(261.083984 0)"/>
     <use xlink:href="#DejaVuSans-2d" transform="translate(300.097656 0)"/>
     <use xlink:href="#DejaVuSans-29" transform="translate(336.181641 0)"/>
    </g>
   </g>
   <g id="text_7">
    <!-- Motor -->
    <g transform="translate(134.295 124.168437) scale(0.14 -0.14)">
     <defs>
      <path id="DejaVuSans-4d" d="M 628 4666 
L 1569 4666 
L 2759 1491 
L 3956 4666 
L 4897 4666 
L 4897 0 
L 4281 0 
L 4281 4097 
L 3078 897 
L 2444 897 
L 1241 4097 
L 1241 0 
L 628 0 
L 628 4666 
z
" transform="scale(0.015625)"/>
      <path id="DejaVuSans-6f" d="M 1959 3097 
Q 1497 3097 1228 2736 
Q 959 2375 959 1747 
Q 959 1119 1226 758 
Q 1494 397 1959 397 
Q 2419 397 2687 759 
Q 2956 1122 2956 1747 
Q 2956 2369 2687 2733 
Q 2419 3097 1959 3097 
z
M 1959 3584 
Q 2709 3584 3137 3096 
Q 3566 2609 3566 1747 
Q 3566 888 3137 398 
Q 2709 -91 1959 -91 
Q 1206 -91 779 398 
Q 353 888 353 1747 
Q 353 2609 779 3096 
Q 1206 3584 1959 3584 
z
" transform="scale(0.015625)"/>
     </defs>
     <use xlink:href="#DejaVuSans-4d"/>
     <use xlink:href="#DejaVuSans-6f" transform="translate(86.279297 0)"/>
     <use xlink:href="#DejaVuSans-74" transform="translate(147.460938 0)"/>
     <use xlink:href="#DejaVuSans-6f" transform="translate(186.669922 0)"/>
     <use xlink:href="#DejaVuSans-72" transform="translate(247.851562 0)"/>
    </g>
   </g>
   <g id="patch_11">
    <path d="M 82.522812 151.38 
C 83.238861 151.38 83.925678 151.095511 84.432001 150.589188 
C 84.938323 150.082866 85.222812 149.396048 85.222812 148.68 
C 85.222812 147.963952 84.938323 147.277134 84.432001 146.770812 
C 83.925678 146.264489 83.238861 145.98 82.522812 145.98 
C 81.806764 145.98 81.119947 146.264489 80.613624 146.770812 
C 80.107302 147.277134 79.822812 147.963952 79.822812 148.68 
C 79.822812 149.396048 80.107302 150.082866 80.613624 150.589188 
C 81.119947 151.095511 81.806764 151.38 82.522812 151.38 
z
" clip-path="url(#p32bc72bccf)" style="stroke: #000000; stroke-width: 2; stroke-linejoin: miter"/>
   </g>
   <g id="patch_12">
    <path d="M 226.522812 151.38 
C 227.238861 151.38 227.925678 151.095511 228.432001 150.589188 
C 228.938323 150.082866 229.222812 149.396048 229.222812 148.68 
C 229.222812 147.963952 228.938323 147.277134 228.432001 146.770812 
C 227.925678 146.264489 227.238861 145.98 226.522812 145.98 
C 225.806764 145.98 225.119947 146.264489 224.613624 146.770812 
C 224.107302 147.277134 223.822812 147.963952 223.822812 148.68 
C 223.822812 149.396048 224.107302 150.082866 224.613624 150.589188 
C 225.119947 151.095511 225.806764 151.38 226.522812 151.38 
z
" clip-path="url(#p32bc72bccf)" style="stroke: #000000; stroke-width: 2; stroke-linejoin: miter"/>
   </g>
  </g>
 </g>
 <defs>
  <clipPath id="p32bc72bccf">
   <rect x="7.126812" y="0" width="276.48" height="279.36"/>
  </clipPath>
 </defs>
</svg>
