<svg xmlns="http://www.w3.org/2000/svg" xmlns:xlink="http://www.w3.org/1999/xlink" xml:lang="en" height="350.8pt" width="140.801pt" viewBox="-18.099999999999994 -130.2 140.801 350.8"><polygon points="80.99999999999997,47.699999999999996 71.99999999999997,60.3 62.99999999999998,47.699999999999996 " style="stroke:black;fill:none;stroke-width:2.0;stroke-dasharray:-;stroke-linecap:round;stroke-linejoin:round;" /><polygon points="80.99999999999996,155.70000000000002 71.99999999999996,168.29999999999998 62.99999999999996,155.70000000000002 " style="stroke:black;fill:none;stroke-width:2.0;stroke-dasharray:-;stroke-linecap:round;stroke-linejoin:round;" /><path d="M 0.0,-0.0 L 3.0998872103417378e-15,-50.625 M 3.5132055050539693e-15,-57.375 L 6.613092715395707e-15,-108.0" style="stroke:black;fill:none;stroke-width:2.0;stroke-dasharray:-;stroke-linecap:round;stroke-linejoin:round;" /><path d="M -13.499999999999996,-50.625 L 13.500000000000004,-50.625" style="stroke:black;fill:none;stroke-width:2.0;stroke-dasharray:-;stroke-linecap:round;stroke-linejoin:round;" /><path d="M -6.7499999999999964,-57.375 L 6.7500000000000036,-57.375" style="stroke:black;fill:none;stroke-width:2.0;stroke-dasharray:-;stroke-linecap:round;stroke-linejoin:round;" /><path d="M 6.613092715395707e-15,-108.0 L 36.00000000000001,-108.0 L 72.0,-108.0" style="stroke:black;fill:none;stroke-width:2.0;stroke-dasharray:-;stroke-linecap:round;stroke-linejoin:round;" /><path d="M 72.0,-108.0 L 71.99999999999999,-72.0 L 81.0,-69.0 L 62.99999999999999,-63.0 L 80.99999999999999,-57.00000000000001 L 62.99999999999999,-51.0 L 80.99999999999999,-45.0 L 62.999999999999986,-39.00000000000001 L 71.99999999999999,-36.0 L 71.99999999999999,-0.0" style="stroke:black;fill:none;stroke-width:2.0;stroke-dasharray:-;stroke-linecap:round;stroke-linejoin:round;" /><path d="M 71.99999999999999,-0.0 L 71.99999999999997,47.699999999999996 M 80.99999999999997,60.3 L 62.99999999999997,60.3 M 71.99999999999997,60.3 L 71.99999999999997,108.0" style="stroke:black;fill:none;stroke-width:2.0;stroke-dasharray:-;stroke-linecap:round;stroke-linejoin:round;" /><path d="M 85.49999999999997,56.699999999999996 L 94.99864937670387,62.127799643830805" style="stroke:black;fill:none;stroke-width:2.0;stroke-dasharray:-;stroke-linecap:round;stroke-linejoin:round;" /><path d="M 99.51351371575106 64.70772212328633 L 93.56976923423619 64.62833989314925 L 96.42752951917154 59.62725939451236 Z" style="stroke:black;fill:black;stroke-linecap:butt;stroke-linejoin:miter;" /><path d="M 85.49999999999997,48.599999999999994 L 94.99864937670387,54.027799643830804" style="stroke:black;fill:none;stroke-width:2.0;stroke-dasharray:-;stroke-linecap:round;stroke-linejoin:round;" /><path d="M 99.51351371575106 56.60772212328634 L 93.56976923423619 56.528339893149244 L 96.42752951917156 51.52725939451236 Z" style="stroke:black;fill:black;stroke-linecap:butt;stroke-linejoin:miter;" /><path d="M 71.99999999999997,108.0 L 71.99999999999996,155.70000000000002 M 80.99999999999996,168.29999999999998 L 62.99999999999995,168.29999999999998 M 71.99999999999996,168.29999999999998 L 71.99999999999996,216.0" style="stroke:black;fill:none;stroke-width:2.0;stroke-dasharray:-;stroke-linecap:round;stroke-linejoin:round;" /><path d="M 85.49999999999996,164.70000000000002 L 94.99864937670385,170.12779964383083" style="stroke:black;fill:none;stroke-width:2.0;stroke-dasharray:-;stroke-linecap:round;stroke-linejoin:round;" /><path d="M 99.51351371575105 172.70772212328635 L 93.56976923423618 172.62833989314925 L 96.42752951917153 167.62725939451235 Z" style="stroke:black;fill:black;stroke-linecap:butt;stroke-linejoin:miter;" /><path d="M 85.49999999999997,156.6 L 94.99864937670385,162.0277996438308" style="stroke:black;fill:none;stroke-width:2.0;stroke-dasharray:-;stroke-linecap:round;stroke-linejoin:round;" /><path d="M 99.51351371575105 164.60772212328635 L 93.56976923423616 164.52833989314925 L 96.42752951917154 159.52725939451236 Z" style="stroke:black;fill:black;stroke-linecap:butt;stroke-linejoin:miter;" /><path d="M 71.99999999999996,216.0 L 35.99999999999995,216.0 L -4.796163466380676e-14,216.0" style="stroke:black;fill:none;stroke-width:2.0;stroke-dasharray:-;stroke-linecap:round;stroke-linejoin:round;" /><path d="M -4.796163466380676e-14,216.0 L -1.7367724616507674e-14,108.0 L 1.3226185430791418e-14,-0.0" style="stroke:black;fill:none;stroke-width:2.0;stroke-dasharray:-;stroke-linecap:round;stroke-linejoin:round;" /><text x="-2.2043642384652378e-16" y="-10.399999999999997" dominant-baseline="hanging" fill="black" font-size="14.0" font-family="sans" text-anchor="middle"><tspan x="-2.2043642384652378e-16" dy="14.0">5V</tspan></text><text x="72.0" y="-125.60000000000001" dominant-baseline="ideographic" fill="black" font-size="14.0" font-family="sans" text-anchor="middle"><tspan x="72.0" dy="14.0">R = ?</tspan></text><text x="85.00499999999998" y="-17.6" dominant-baseline="ideographic" fill="black" font-size="14.0" font-family="sans" text-anchor="middle"><tspan x="85.00499999999998" dy="14.0">Eye 1 (2V)</tspan></text><text x="85.00499999999997" y="90.39999999999999" dominant-baseline="ideographic" fill="black" font-size="14.0" font-family="sans" text-anchor="middle"><tspan x="85.00499999999997" dy="14.0">Eye 2 (2V)</tspan></text></svg>