<svg xmlns="http://www.w3.org/2000/svg" xmlns:xlink="http://www.w3.org/1999/xlink" xml:lang="en" height="98.8pt" width="225.20000000000005pt" viewBox="-4.6 -58.2 225.20000000000005 98.8"><path d="M 0.0,-0.0 L 18.0,-0.0 L 36.0,-0.0" style="stroke:black;fill:none;stroke-width:2.0;stroke-dasharray:-;stroke-linecap:round;stroke-linejoin:round;" /><path d="M 36.0,-0.0 L 36.0,-13.5 L 36.0,-27.0" style="stroke:black;fill:none;stroke-width:2.0;stroke-dasharray:-;stroke-linecap:round;stroke-linejoin:round;" /><path d="M 36.0,-27.0 L 72.0,-27.0 L 74.99999999999999,-36.0 L 81.0,-18.0 L 87.0,-36.0 L 92.99999999999999,-18.0 L 99.0,-36.0 L 105.0,-18.0 L 108.0,-27.0 L 144.0,-27.0" style="stroke:black;fill:none;stroke-width:2.0;stroke-dasharray:-;stroke-linecap:round;stroke-linejoin:round;" /><path d="M 144.0,-27.0 L 144.0,-13.5 L 144.0,-0.0" style="stroke:black;fill:none;stroke-width:2.0;stroke-dasharray:-;stroke-linecap:round;stroke-linejoin:round;" /><path d="M 36.0,-0.0 L 35.99999999999999,13.5 L 35.99999999999999,27.0" style="stroke:black;fill:none;stroke-width:2.0;stroke-dasharray:-;stroke-linecap:round;stroke-linejoin:round;" /><path d="M 35.99999999999999,27.0 L 72.0,27.0 L 74.99999999999999,18.0 L 81.0,36.0 L 87.0,18.0 L 92.99999999999999,36.0 L 99.0,18.0 L 105.0,36.0 L 108.0,27.0 L 144.0,27.0" style="stroke:black;fill:none;stroke-width:2.0;stroke-dasharray:-;stroke-linecap:round;stroke-linejoin:round;" /><path d="M 144.0,27.0 L 144.0,13.5 L 144.0,-0.0" style="stroke:black;fill:none;stroke-width:2.0;stroke-dasharray:-;stroke-linecap:round;stroke-linejoin:round;" /><path d="M 36.0,-0.0 L 126.0,-0.0 L 216.0,-0.0" style="stroke:black;fill:none;stroke-width:2.0;stroke-dasharray:-;stroke-linecap:round;stroke-linejoin:round;" /><text x="90.0" y="-53.6" dominant-baseline="ideographic" fill="black" font-size="14.0" font-family="sans" text-anchor="middle"><tspan x="90.0" dy="14.0">R₁</tspan></text><text x="90.0" y="0.40000000000000036" dominant-baseline="ideographic" fill="black" font-size="14.0" font-family="sans" text-anchor="middle"><tspan x="90.0" dy="14.0">R₂</tspan></text></svg>